<svg xmlns="http://www.w3.org/2000/svg" width="66" height="146" fill="none" viewBox="0 0 66 146">
   <defs>
      <clipPath id="a">
         <path fill="#fff" d="M0 0h66v145H0z" transform="translate(0 .125)" />
      </clipPath>
   </defs>
   <g clip-path="url(#a)">
      <path fill="#F7BC28"
         d="M56.767 145.125H9.233c-5.101 0-9.234-7.536-9.234-16.837V25.767C0 16.465 4.133 8.929 9.234 8.929h47.532c5.101 0 9.234 7.536 9.234 16.838v102.521c0 9.301-4.133 16.837-9.233 16.837z" />
      <path fill="#E48929"
         d="M55.525 53.355h-45.05c-2.147 0-3.897-3.191-3.897-7.107v-19.78c0-3.915 1.75-7.106 3.897-7.106h45.05c2.147 0 3.897 3.191 3.897 7.106v19.78c0 3.916-1.75 7.107-3.897 7.107zM55.525 92.575h-45.05c-1.812 0-3.277-2.67-3.277-5.975V66.82c0-3.304 1.465-5.974 3.277-5.974h45.05c1.812 0 3.277 2.67 3.277 5.974V86.6c0 3.304-1.465 5.975-3.277 5.975zM55.525 134.058h-45.05c-2.147 0-3.897-3.191-3.897-7.106v-19.78c0-3.915 1.75-7.106 3.897-7.106h45.05c2.147 0 3.897 3.191 3.897 7.106v19.78c0 3.915-1.75 7.106-3.897 7.106z" />
      <path fill="#F7BC28"
         d="M33.348 82.73c1.823 0 3.3-2.695 3.3-6.02 0-3.325-1.477-6.02-3.3-6.02-1.824 0-3.302 2.695-3.302 6.02 0 3.325 1.478 6.02 3.302 6.02zM33.348 123.082c1.823 0 3.3-2.695 3.3-6.02 0-3.325-1.477-6.02-3.3-6.02-1.824 0-3.302 2.695-3.302 6.02 0 3.325 1.478 6.02 3.302 6.02z" />
      <path fill="#FBFAF7"
         d="M10.264 10.762c1.638 16.52 2.68 33.676 4.418 50.084h32.752c-2.681-28.743-4.071-39.108-5.61-57.552-.174-1.992-1.18-3.395-2.271-3.146l-27.54 6.246c-1.166.272-1.96 2.263-1.75 4.368z" />
      <path fill="#194429"
         d="M18.541 24.816c6.193.385 12.374-.113 18.53-1.494.98-.226.992-3.055 0-2.829a65.644 65.644 0 01-18.53 1.494c-.992-.045-.992 2.784 0 2.829zM19.783 36.132c6.193.385 12.373-.113 18.529-1.494.98-.226.993-3.055 0-2.829a65.655 65.655 0 01-18.53 1.494c-.992-.045-.992 2.784 0 2.829zM21.023 47.448c6.193.385 12.374-.113 18.53-1.494.98-.226.992-3.055 0-2.829a65.644 65.644 0 01-18.53 1.494c-.992-.045-.992 2.784 0 2.829z" />
   </g>
</svg>