<svg class="ballet-girl" xmlns="http://www.w3.org/2000/svg" width="214" height="319" fill="none" viewbox="0 0 214 319">
   <g>
      <path fill="#B26D55"
         d="M191.059 306.227a27.72 27.72 0 001.314 12.454c.25.722.53 1.536.193 2.228-.394.8-1.415 1.024-2.304 1.15a281.835 281.835 0 01-38.591 2.77c-.801 0-1.681-.03-2.264-.582-.788-.748-.569-2.139.167-2.94.735-.801 1.83-1.16 2.868-1.479a277.251 277.251 0 0125.081-6.499 2.828 2.828 0 002.724-2.188l2.627-6.7" />
      <path fill="#B26D55"
         d="M191.313 61.958a318.326 318.326 0 013.696-49.703c.195-1.261 1.011-2.922 2.211-2.483a166.378 166.378 0 017.287 26.557c.334 1.788.617 3.728-.22 5.344-.877 1.686-2.823 2.682-3.492 4.464-.508 1.338-.173 2.828.165 4.218l2.563 10.553" />
      <g class="balletgirl-hand-down">
         <path fill="#B26D55"
            d="M40.776 174.418a97.577 97.577 0 00-39.534 5.005 1.255 1.255 0 00-.786 1.633c.193.453.522.834.94 1.092.823.502 1.826.561 2.79.603 4.147.175 8.3.216 12.456.12 2.141-.049 4.348-.152 6.295-1.054 1.266-.586 2.363-1.486 3.62-2.09 4.335-2.073 9.516-.227 14.262-.973" />
         <path fill="#7F4341"
            d="M19.137 178.776c-1.665-.085-3.33-.157-4.998-.146-1.905.013-3.977.028-5.808.618a2.7 2.7 0 00-1.573 1.056 1.36 1.36 0 00.208 1.609c.561.464 1.25.748 1.976.814 1.03.166 2.072.251 3.115.254 2.239.038 4.467-.131 6.704-.229.692-.031.689-1.116-.008-1.085-1.75.077-3.45.198-5.179.227-1.73.03-3.743.166-5.368-.47a1.274 1.274 0 01-.519-.33.612.612 0 01-.001-.205c.142-.325.71-.535 1.13-.656 1.665-.47 3.478-.483 5.203-.495 1.726-.011 3.417.056 5.125.14.697.039.685-1.046-.007-1.08v-.022z" />
      </g>
      <path fill="#39B55D"
         d="M38.298 183.404a3.53 3.53 0 01-.998 2.626 2.785 2.785 0 01-2.654.722 3.322 3.322 0 01-2.054-2.136 9.91 9.91 0 01-.438-3.028c-.162-4.533-.32-9.12.618-13.566.054-.496.276-.96.63-1.312.392-.249.85-.373 1.314-.355.758-.039 1.572-.066 2.19.35.924.608 1.09 1.869 1.165 2.967l.67 9.759" />
      <path fill="#39B55D"
         d="M116.296 146.793l-3.08-11.118c-3.762-34.153-.442-68.886 6.135-102.607l20.39.622c11.054 25.223 15.962 70.923 7.655 101.101l20.62 1.619c.982.076 2.051.192 2.752.888.701.695.817 1.776.893 2.76a368.873 368.873 0 01-.161 56.851c-.069.876-.177 1.791-.786 2.395-.87.88-2.321.64-3.502.311-3.799-1.052-3.487-1.514-7.567-2.669-3.729-1.057-26.577-10.683-31.693-13.455-.259-.143-3.418 3.707-3.867 4.108a17.29 17.29 0 01-7.543 3.79s-36.4 7.003-83.15-6.426c0 0-.456-11.012-.187-15.599 21.498-7.604 55.09-9.911 79.146-9.474"
         class="balletgirl-sweeter" />
      <path fill="#153A23"
         d="M166.408 196.445c.566 36.98 2.868 73.885 6.906 110.714l25.637 1.807c5.965-42.408 11.929-85.6 4.975-127.859l-37.518 15.338z" />
      <path fill="#39B55D"
         d="M121.892 36.062c-1.082.092-2.225.08-3.18-.437-.954-.517-1.655-1.68-1.314-2.735.438-1.475 2.335-1.786 3.854-1.83 6.131-.157 12.262-.236 18.354.329.986.092 2.102.271 2.658 1.102.557.832.241 2.188-.521 2.91-.762.723-1.822 1.064-2.846 1.313a36.68 36.68 0 01-13.703.727" />
      <path fill="#39B55D"
         d="M112.051 159.384c-2.294-1.934-2.448-5.584-1.843-8.214l1.217-5.321a23.473 23.473 0 011.445-4.774 1.48 1.48 0 011.043-.959c.333-.031.669.033.967.184 2.663 1.169 3.206 3.912 2.996 6.289-.285 3.273-1.454 6.48-2.628 9.666-.315.875-.665 1.781-1.498 2.438" />
      <path fill="#153A23"
         d="M187.154 59.3c-10.437 25.954-15.844 55.981-17.22 76.268l-2.495 65.5c15.415 5.9 34.661-3.069 40.542-18.88 2.092-5.65 2.615-11.733 2.923-17.75 1.543-30.026-1.46-74.994-4.741-104.867l-19.009-.27z" />
      <path fill="#B26D56"
         d="M112.539 141.776c-1.926-4.319-1.361-6.774-1.168-8.718-1.768.848-5.152 1.085-5.846 2.63-.151.33-2.357.585-2.332.922.351 5.324 4.34 12.946 6.874 17.786" />
      <g class="balletgirl-head">
         <path fill="#153A23"
            d="M126.053 126.579c2.885.265 5.794.762 8.701.694 1.825-.048 7.696.138 8.022-2.475.289-2.297-2.81-3.542-4.493-4.22-4.21-1.666-8.118-3.69-12.174-5.663a313.951 313.951 0 00-17.269-7.787C98.776 102.95 88.48 99.29 78.067 96.12c-2.398-.73-5.138-1.3-7.468-.788a2.34 2.34 0 00-1.827 2.629c.058.39.214.758.452 1.071 6.351 8.255 16.757 14.114 27.721 16.556" />
         <path fill="#FAC8B8"
            d="M111.739 141.663c4.208 12.311 13.236 10.548 17.322 10.581 2.628.02 5.478-.519 7.287-2.434 2.75-2.909-3.679-14.846-4.595-18.754l-2.647-11.293a13.218 13.218 0 00-1.09-3.303 11.83 11.83 0 00-2.991-3.29 56.306 56.306 0 00-32.644-12.804 135.683 135.683 0 0114.339 32.188l5.019 9.109z" />
         <path fill="#B26D55"
            d="M92.381 100.367a68.83 68.83 0 00-3.917 23.295c-.007 4.044.514 8.31 2.735 11.681a12.298 12.298 0 0010.487 5.616c3.998-.142 7.752-2.465 10.019-5.947 3.455-5.314 3.342-12.459 3.101-19.096l-22.425-15.549z" />
         <path fill="#FAC7B7"
            d="M92.381 100.366c.295 4.518 2.575 9.604 4.623 13.664 1.98 3.921 4.673 5.778 7.224 6.499 4.171 1.182 8.717-4.596 11.128-8.207l-22.975-11.956z" />
         <path fill="#F1673C"
            d="M102.468 130.624a.25.25 0 01-.156.085.25.25 0 01-.172-.043c-.829-.566-1.761-.968-2.615-1.499-.855-.53-1.765-1.349-2.094-2.379-.596-1.937 1.282-3.513 3.07-2.457.496.321.942.712 1.324 1.161.009.01.021.016.034.018.013.002.027 0 .039-.006a.064.064 0 00.027-.027.074.074 0 00.005-.039 2.12 2.12 0 01.314-1.617c.531-.823 1.767-1.618 2.793-1.557 1.446.087 1.61 1.735 1.339 2.832-.311 1.346-1.495 2.639-2.357 3.671l-1.551 1.857z" />
         <path fill="#010101"
            d="M90.441 118.121c.219.781.506 1.542.857 2.273.39.871 1.163 1.661 2.202 1.327.952-.31 1.482-1.326 1.877-2.174a8.49 8.49 0 00.588-2.767l-.717.203a4.712 4.712 0 003.086 2.235c.487.1.69-.646.2-.746a3.969 3.969 0 01-2.646-1.884.39.39 0 00-.716.199 7.76 7.76 0 01-.44 2.262c-.287.659-.694 1.6-1.405 1.904-.838.357-1.273-.746-1.528-1.33a11.276 11.276 0 01-.615-1.714.385.385 0 00-.478-.265.384.384 0 00-.265.477z" />
         <path fill="#010101"
            d="M95.08 118.957c.239.272.494.531.764.773.299.299.696.48 1.118.509a.395.395 0 00.27-.119.395.395 0 00.114-.271.39.39 0 00-.386-.384h-.1.034-.052c-.04 0-.15-.066-.031 0-.035 0-.075-.031-.11-.052a1.65 1.65 0 01-.214-.136l-.053-.039c.096.066.026.022 0 0l-.105-.087a9.25 9.25 0 01-.712-.725.388.388 0 00-.547.001.398.398 0 00.001.547l.009-.017z" />
         <path fill="#FAC7B7"
            d="M93.35 112.878a.847.847 0 01-.543-.932c.053-.299.17-.583.342-.834a.57.57 0 01.361-.279.676.676 0 01.391.11 15.464 15.464 0 013.084 1.972 5.797 5.797 0 011.735 2.54.207.207 0 01-.073.228.211.211 0 01-.24.011l-1.788-1.157a17.24 17.24 0 00-3.26-1.659h-.01z" />
         <path fill="#C63D32"
            d="M88.793 116.561c-.69 2.006-1.516 4.731-2.207 6.737-.213.615-.426 1.295-.188 1.901.475 1.235 2.23 1.166 3.511.87l-1.116-9.508z" />
         <path fill="#FAC8B8"
            d="M114.462 125.971c-3.355-.168-4.653 4.645-4.915 7.153-.72 6.815 1.893 15.495 9.019 17.872.842.283 3.167.431 3.647-.332a2.373 2.373 0 00.185-1.602 73.791 73.791 0 00-5.579-20.554" />
         <path fill="#fff"
            d="M96.957 100.81c1.272 5.888-1.255 9.311 8.512 16.552 1.98 1.47-.42-.932-.861-1.305-5.388-4.432-6.673-11.264-6.538-14.714.026-.565-.953-2.718-.83-2.18l-.283 1.647z" />
         <path fill="#fff"
            d="M112.232 116.375a25.816 25.816 0 00-4.498-3.981 19.231 19.231 0 00-4.516-2.514c-.526-.214-1.884-.342-1.362-.129 1.718.697 3.907 2.302 5.412 3.388 1.504 1.086 2.634 3.018 3.82 4.429 0 0 .472-.439 1.022-1.062l.122-.131z" />
         <path fill="#fff"
            d="M104.259 103.759c1.656 5.363 5.303 7.645 9.186 11.228 1.011.936 3.617 2.401 4.39 3.549 1.012 1.5 1.57 2.226 2.225 3.918 1.443 3.61 3.036 8.222 3.741 12.062.35 1.636.41 3.321.177 4.978a21.564 21.564 0 01-1.047 4.233c-.175.531-.08 1.314.169.791 1.238-2.559 2.37-8.022 2.013-10.229-.399-2.442-1.719-5.069-3.056-8.523-1.261-3.262-2.705-8.408-5.041-11.069-1.872-2.119-3.74-2.286-6.11-3.8-3.625-2.317-5.945-5.009-6.901-8.107-.167-.537.074.437.241.986l.013-.017z" />
         <path fill="#fff"
            d="M118.071 148.209c1.83.386 2.798.946 4.653 1.17 1.78.211 4.935.392 6.713-.031 2.889-.687 2.99-4.526 2.523-7.17-.323-1.848-1.637-2.829-2.341-4.551a35.232 35.232 0 01-1.726-5.84c-.787-3.66-1.224-7.398-2.194-11.021-.971-3.624-2.515-7.251-5.176-10.018a.44.44 0 00-.634.609c4.66 4.855 4.851 12.271 6.008 18.593.645 3.495 1.423 5.759 3.947 9.298 1.58 2.209 2.024 6.721-.651 8.759-1.579 1.204-3.935.771-5.758.573a60.286 60.286 0 01-5.991-.961c-.549-.113-1.774.017-1.221.121l1.848.469z" />
         <path fill="#fff"
            d="M112.501 140.667a3.635 3.635 0 003.147-1.63c.839-1.181 2.163-2.961 2.295-4.367.293-3.333-.9-6.46-2.199-9.608-.215-.518-.982-.091-.771.445 1.097 2.651 1.211 5.556 1.027 8.384-.138 2.133-.307 6.668-3.335 6.473-.565-.039-.729.273-.164.307v-.004z" />
         <path fill="#fff"
            d="M115.199 144.038a8.892 8.892 0 005.568-3.188c1.763-2.174.014-5.173-.658-7.749-.14-.546-1-3.08-1.1-2.524-.117.658 1.533 7.667.437 9.952-1.096 2.286-3.514 2.737-5.731 3.116-.559.097-.799.76-.243.663l1.727-.27z" />
         <path fill="#153A23" d="M92.36 100.545l35.907 15.478-3.261-23.956-20.951-8.885-11.695 17.363z" />
         <path fill="#B26D56"
            d="M113.359 115.037c1.558-.489 2.735-.816 4.516.104a5.692 5.692 0 013.111 4.806c.027 2.302-1.641 4.406-3.74 5.348-2.1.941-4.549.885-6.779.3" />
         <path fill="#010101"
            d="M114.565 123.03a4.312 4.312 0 004.123-2.635 2.215 2.215 0 00.119-1.545 3.588 3.588 0 00-.571-1.01 4.226 4.226 0 00-1.558-1.353 4.46 4.46 0 00-2.922-.216c-.486.11-.278.854.208.747a3.51 3.51 0 012.576.275 3.888 3.888 0 011.391 1.489c.515.922-.184 1.996-.87 2.627a3.533 3.533 0 01-2.481.881c-.499-.025-.497.75.002.775l-.017-.035z" />
         <path fill="#010101"
            d="M114.367 121.07a3.57 3.57 0 001.108-.27c.306-.14.552-.384.694-.689a1.157 1.157 0 00-.063-1.085 1.637 1.637 0 00-.83-.663 3.423 3.423 0 00-1.244-.146.387.387 0 00-.384.386.395.395 0 00.386.389l.561-.002h.083l.144.031c.085.016.169.039.25.069-.066-.022.048.026.057.03l.11.066c.083.052-.057-.048 0 0a.624.624 0 01.092.087c.026.031.092.118.04.039 0 .031.039.057.057.092.017.035.052.118 0 .026a.653.653 0 01.035.114c0 .044 0 .04 0 0v.061a.204.204 0 010 .092c.035-.1 0 .022 0 .044.001.022.001.035 0 0l-.026.053-.065.1c.039-.052 0 0 0 0l-.088.088c-.035.027-.03.027 0 0l-.048.035c-.063.043-.131.08-.201.11.075-.031-.061 0-.074.022a.747.747 0 01-.14.04c-.082.023-.166.04-.25.053l-.14.022h-.07a.397.397 0 00-.384.391c0 .184.171.411.386.384l.004.031z" />
      </g>
      <path fill="#153A23"
         d="M159.042 197.298l8.5 3.851 5.054-64.271c-2.833-.328-5.041-.035-7.883-.363l-5.671 60.783z" />
      <path fill="#122D1C" d="M204.837 187.032s-7.125 14.003-29 16.957c0 0 17.561.7 30.265-5.553l-1.265-11.404z" />
      <path fill="#153A23"
         d="M34.016 169.318a20.37 20.37 0 013.13.196.567.567 0 00.67-.38.548.548 0 00-.38-.665 21.75 21.75 0 00-3.42-.237.542.542 0 100 1.086z" />
      <path fill="#153A23"
         d="M32.456 172.403a15.49 15.49 0 014.883.253.544.544 0 00.657-.381.542.542 0 00-.367-.665 16.58 16.58 0 00-5.172-.293.56.56 0 00-.544.543.546.546 0 00.543.543z" />
      <path fill="#153A23"
         d="M32.903 175.672c.474-.053.951-.07 1.428-.053.232 0 .464.031.696.057h.079l.166.022.386.074a.56.56 0 00.67-.38.548.548 0 00-.381-.666 9.906 9.906 0 00-3.044-.153.56.56 0 00-.543.543.55.55 0 00.543.543v.013z" />
      <path fill="#153A23"
         d="M32.54 178.897h3.503a.542.542 0 100-1.085l-3.503.021a.55.55 0 00-.543.543.556.556 0 00.543.543v-.022z" />
      <path fill="#153A23"
         d="M32.584 185.089l3.503-.026a.558.558 0 00.415-.14.545.545 0 00-.193-.915.54.54 0 00-.222-.026l-3.504.022a.545.545 0 00-.543.542.543.543 0 00.544.543z" />
      <path fill="#153A23"
         d="M31.944 182.17h3.705a.555.555 0 00.543-.543.546.546 0 00-.543-.542h-3.705a.54.54 0 00-.592.54.541.541 0 00.592.541v.004z" />
      <path fill="#153A23"
         d="M120.411 34.754a19.37 19.37 0 01-.162-1.523 21.86 21.86 0 01-.048-1.606.54.54 0 00-.541-.591.545.545 0 00-.54.591 21.251 21.251 0 00.249 3.418.545.545 0 00.666.376.556.556 0 00.376-.665z" />
      <path fill="#153A23"
         d="M123.6 35.266a15.56 15.56 0 01-.39-4.87.542.542 0 00-.539-.543.55.55 0 00-.543.542 16.354 16.354 0 00.438 5.16c.162.678 1.209.39 1.047-.289h-.013z" />
      <path fill="#153A23"
         d="M126.884 34.377a6.582 6.582 0 01-.144-.787v-.14c0-.07 0-.14-.022-.21 0-.167-.031-.329-.044-.49a14.198 14.198 0 010-1.75.549.549 0 00-.543-.544.553.553 0 00-.539.543 13.037 13.037 0 000 1.79c.033.626.12 1.248.259 1.86a.543.543 0 101.046-.285l-.013.014z" />
      <path fill="#153A23"
         d="M129.924 34.855l-.154-2.888a.554.554 0 00-.543-.543.55.55 0 00-.543.543l.153 2.888a.555.555 0 00.543.538.544.544 0 00.544-.538z" />
      <path fill="#153A23"
         d="M135.998 34.04l-.5-3.474a.545.545 0 00-.67-.38.563.563 0 00-.376.669l.499 3.475a.545.545 0 00.666.376.558.558 0 00.381-.665z" />
      <path fill="#153A23"
         d="M132.748 34.614c-.022-1.234-.035-2.468-.061-3.702a.54.54 0 00-.541-.591.545.545 0 00-.541.59c.022 1.235.035 2.469.057 3.703a.542.542 0 101.086 0z" />
      <path fill="#153A23"
         d="M138.709 34.697v-3.82a.546.546 0 00-.543-.543.542.542 0 00-.544.543v3.82a.543.543 0 001.087 0z" />
      <path fill="#153A23"
         d="M141.494 35.012v-2.687a.548.548 0 00-.543-.542.556.556 0 00-.543.542v2.687a.541.541 0 00.927.384.541.541 0 00.159-.384z" />
      <path fill="#153A23" d="M127.436 183.64c1.34-4.205 2.089-7.47 2.032-13.088l2.79 15.403-4.822-2.315z" />
      <g class="Group">
         <path fill="#153A23"
            d="M112.406 159.624a81.213 81.213 0 004.563-9.561c.263-.648-.788-.932-1.046-.289a78.044 78.044 0 01-4.454 9.303.541.541 0 00.607.784.542.542 0 00.33-.237z" />
         <path fill="#153A23"
            d="M108.797 156.351h-.03.079l.157.026.333.057c.258.048.512.105.766.171.254.066.487.136.723.219l.162.065c.066 0-.101-.048 0 0l.066.027.289.157a.544.544 0 00.74-.192.56.56 0 00-.193-.744 5.297 5.297 0 00-1.489-.574 13.041 13.041 0 00-1.594-.297.545.545 0 00-.538.543.552.552 0 00.529.542z" />
         <path fill="#153A23"
            d="M110.155 152.592c-.206.031 0 0 .044 0h.635c.368 0 .736.057 1.099.101l.272.03h.048l.14.022.512.079c.263.044.523.1.78.171a.552.552 0 00.582-.184.536.536 0 00.112-.406.55.55 0 00-.212-.363.532.532 0 00-.193-.093 12.714 12.714 0 00-2.041-.35 8.12 8.12 0 00-2.054-.075.545.545 0 00-.381.67.557.557 0 00.666.376l-.009.022z" />
         <path fill="#153A23"
            d="M110.015 150.133c.276-.023.554-.013.828.03h.188l.298.048.639.123c.8.152 1.585.372 2.347.656a.537.537 0 00.666-.376.551.551 0 00-.05-.41.543.543 0 00-.327-.255 14.236 14.236 0 00-2.408-.67 16.658 16.658 0 00-1.314-.218 3.427 3.427 0 00-.876-.035.552.552 0 00-.543.538.543.543 0 00.543.542l.009.027z" />
         <path fill="#153A23"
            d="M109.122 154.513c.582.035 1.169.035 1.751.079a5.604 5.604 0 011.673.354.549.549 0 00.67-.38.556.556 0 00-.381-.665c-1.182-.464-2.474-.394-3.718-.473a.55.55 0 00-.543.543.556.556 0 00.543.542h.005z" />
         <path fill="#153A23"
            d="M110.606 148.037c.885.006 1.766.11 2.628.31.876.162 1.751.355 2.667.512a.553.553 0 00.665-.376.539.539 0 00-.376-.665c-.92-.162-1.826-.363-2.742-.53a13.43 13.43 0 00-2.824-.337c-.697.031-.701 1.116 0 1.086h-.018z" />
      </g>
      <g class="Group_2">
         <path fill="#FAC7B7"
            d="M208.745 114.458a1.222 1.222 0 01-.303 1.438 1.478 1.478 0 01-1.71.09 1.498 1.498 0 01-.435-.419 1.274 1.274 0 01.003-1.154 1.26 1.26 0 01.939-.671s1.094-.216 1.506.716z" />
         <path fill="#FAC7B7"
            d="M208.993 101.454a1.217 1.217 0 01-.304 1.435 1.478 1.478 0 01-2.144-.326c-.425-.712.122-1.796.941-1.824 0 0 1.095-.22 1.507.715z" />
         <path fill="#FAC7B7"
            d="M209.24 88.442a1.222 1.222 0 01-.303 1.439 1.484 1.484 0 01-2.145-.33 1.258 1.258 0 01-.137-.577 1.256 1.256 0 01.529-1.025c.163-.117.351-.193.55-.222 0 0 1.095-.212 1.506.715z" />
         <path fill="#FAC7B7"
            d="M209.488 75.443a1.216 1.216 0 01-.304 1.435 1.477 1.477 0 01-1.143.302 1.491 1.491 0 01-1.001-.628c-.425-.713.122-1.796.941-1.825 0 0 1.095-.22 1.507.716z" />
         <path fill="#FAC7B7"
            d="M209.735 62.436a1.222 1.222 0 01-.303 1.438 1.486 1.486 0 01-2.145-.33 1.268 1.268 0 01.003-1.151 1.255 1.255 0 01.939-.669s1.095-.22 1.506.712z" />
         <path fill="#FAC7B7"
            d="M207.519 178.866a1.216 1.216 0 01-.303 1.434 1.492 1.492 0 01-1.143.302 1.475 1.475 0 01-1.002-.627 1.26 1.26 0 01.003-1.154 1.26 1.26 0 01.939-.671s1.095-.22 1.506.716z" />
         <path fill="#FAC7B7"
            d="M207.766 165.885a1.219 1.219 0 01-.303 1.434 1.504 1.504 0 01-1.143.3 1.486 1.486 0 01-1.002-.626c-.424-.712.122-1.796.942-1.824 0-.022 1.095-.242 1.506.716z" />
         <path fill="#FAC7B7"
            d="M208.014 152.855a1.222 1.222 0 01-.303 1.439 1.496 1.496 0 01-1.71.089 1.498 1.498 0 01-.435-.419 1.26 1.26 0 01.003-1.153 1.265 1.265 0 01.939-.672s1.095-.22 1.506.716z" />
         <path fill="#FAC7B7"
            d="M208.262 139.852a1.216 1.216 0 01-.304 1.434 1.472 1.472 0 01-.54.268 1.473 1.473 0 01-.602.032 1.474 1.474 0 01-1.002-.625c-.424-.713.122-1.797.941-1.825 0 0 1.095-.22 1.507.716z" />
         <path fill="#FAC7B7"
            d="M208.509 126.844a1.222 1.222 0 01-.303 1.439 1.496 1.496 0 01-1.71.089 1.482 1.482 0 01-.434-.419 1.249 1.249 0 01-.138-.577 1.253 1.253 0 01.529-1.025c.163-.117.351-.193.55-.223 0 0 1.095-.215 1.506.716z" />
         <path fill="#FAC7B7"
            d="M179.614 113.903a1.224 1.224 0 01-.303 1.439 1.486 1.486 0 01-2.144-.33 1.275 1.275 0 01-.138-.578 1.256 1.256 0 011.084-1.246s1.09-.216 1.501.715z" />
         <path fill="#FAC7B7"
            d="M179.862 100.9a1.217 1.217 0 01-.294 1.421 1.492 1.492 0 01-1.143.303 1.492 1.492 0 01-1.002-.628 1.264 1.264 0 01.002-1.156 1.264 1.264 0 01.944-.669s1.081-.207 1.493.729z" />
         <path fill="#FAC7B7"
            d="M180.11 87.888a1.222 1.222 0 01-.304 1.439 1.49 1.49 0 01-1.144.3 1.483 1.483 0 01-1-.63 1.275 1.275 0 01-.138-.578 1.273 1.273 0 01.532-1.025c.164-.117.353-.193.552-.222 0 0 1.09-.211 1.502.716z" />
         <path fill="#FAC7B7"
            d="M180.357 74.889a1.216 1.216 0 01-.303 1.434 1.493 1.493 0 01-1.143.303 1.484 1.484 0 01-1.002-.628 1.25 1.25 0 01-.139-.578 1.251 1.251 0 01.532-1.027 1.26 1.26 0 01.553-.22s1.091-.22 1.502.716z" />
         <path fill="#FAC7B7"
            d="M180.605 61.881a1.222 1.222 0 01-.304 1.439 1.49 1.49 0 01-1.144.3 1.481 1.481 0 01-1-.63 1.26 1.26 0 01.946-1.82s1.09-.22 1.502.711z" />
         <path fill="#FAC7B7"
            d="M178.389 178.312a1.218 1.218 0 01-.295 1.451 1.492 1.492 0 01-1.143.303 1.492 1.492 0 01-1.002-.628 1.261 1.261 0 01.394-1.603c.164-.117.353-.193.552-.222 0 0 1.082-.237 1.494.699z" />
         <path fill="#FAC7B7"
            d="M178.141 191.315a1.222 1.222 0 01-.303 1.438 1.478 1.478 0 01-1.71.09 1.498 1.498 0 01-.435-.419 1.261 1.261 0 01.946-1.821s1.09-.22 1.502.712z" />
         <path fill="#FAC7B7"
            d="M178.636 165.33a1.217 1.217 0 01-.304 1.434 1.482 1.482 0 01-1.708.091 1.478 1.478 0 01-.436-.416 1.264 1.264 0 01.001-1.156 1.263 1.263 0 01.945-.669s1.091-.242 1.502.716z" />
         <path fill="#FAC7B7"
            d="M178.884 152.301a1.22 1.22 0 01-.304 1.438 1.49 1.49 0 01-1.144.301 1.494 1.494 0 01-1-.63 1.272 1.272 0 01.394-1.604c.164-.116.353-.192.552-.221 0 0 1.09-.22 1.502.716z" />
         <path fill="#FAC7B7"
            d="M179.131 139.297a1.217 1.217 0 01-.303 1.434 1.49 1.49 0 01-2.145-.325 1.25 1.25 0 01-.139-.578 1.25 1.25 0 01.532-1.027c.164-.116.354-.191.553-.22 0 0 1.091-.219 1.502.716z" />
         <path fill="#FAC7B7"
            d="M179.379 126.29a1.22 1.22 0 01-.304 1.438 1.49 1.49 0 01-1.143.301 1.494 1.494 0 01-1.001-.63 1.267 1.267 0 01.946-1.825s1.09-.216 1.502.716z" />
         <path fill="#FAC7B7"
            d="M194.63 106.757a1.218 1.218 0 01-.303 1.434 1.492 1.492 0 01-1.143.303 1.492 1.492 0 01-1.002-.628c-.424-.713.122-1.797.946-1.825 0 0 1.095-.22 1.502.716z" />
         <path fill="#FAC7B7"
            d="M194.877 93.75a1.225 1.225 0 01-.303 1.439 1.486 1.486 0 01-2.144-.33 1.275 1.275 0 01-.138-.578 1.273 1.273 0 01.532-1.026c.164-.116.353-.192.552-.221 0 0 1.094-.216 1.501.716z" />
         <path fill="#FAC7B7"
            d="M195.125 80.733a1.21 1.21 0 01-.303 1.434 1.493 1.493 0 01-1.143.303 1.483 1.483 0 01-1.002-.628c-.424-.713.122-1.796.946-1.825 0 .014 1.095-.206 1.502.716z" />
         <path fill="#FAC7B7"
            d="M195.372 67.739a1.225 1.225 0 01-.303 1.439 1.486 1.486 0 01-2.144-.33 1.275 1.275 0 01-.138-.579 1.273 1.273 0 01.532-1.025c.164-.116.353-.192.552-.221 0 0 1.094-.216 1.501.716z" />
         <path fill="#FAC7B7"
            d="M195.62 54.735a1.216 1.216 0 01-.303 1.435 1.493 1.493 0 01-1.143.302 1.484 1.484 0 01-1.002-.628c-.424-.712.122-1.796.946-1.824 0-.005 1.095-.22 1.502.715z" />
         <path fill="#FAC7B7"
            d="M193.404 171.161a1.229 1.229 0 01-.282 1.448c-.16.125-.344.217-.54.269a1.496 1.496 0 01-1.169-.18 1.498 1.498 0 01-.435-.419c-.425-.708.122-1.792.946-1.82-.022-.009 1.073-.229 1.48.702z" />
         <path fill="#FAC7B7"
            d="M193.156 184.169a1.21 1.21 0 01-.303 1.434 1.476 1.476 0 01-1.143.302 1.482 1.482 0 01-1.001-.627c-.425-.713.121-1.797.946-1.825 0 0 1.094-.22 1.501.716z" />
         <path fill="#FAC7B7"
            d="M192.909 197.172a1.222 1.222 0 01-.303 1.439 1.484 1.484 0 01-1.144.3 1.494 1.494 0 01-1.001-.63 1.261 1.261 0 01.005-1.155c.092-.178.226-.332.389-.449.164-.116.353-.192.552-.221 0 0 1.095-.224 1.502.716z" />
         <path fill="#FAC7B7"
            d="M193.651 158.175a1.219 1.219 0 01-.303 1.435 1.49 1.49 0 01-2.145-.326 1.261 1.261 0 01.395-1.603c.163-.117.352-.192.551-.221 0 0 1.095-.238 1.502.715z" />
         <path fill="#FAC7B7"
            d="M193.899 145.155a1.214 1.214 0 01-.303 1.434 1.504 1.504 0 01-1.143.3 1.496 1.496 0 01-1.002-.626c-.424-.712.122-1.796.946-1.824 0 0 1.095-.22 1.502.716z" />
         <path fill="#FAC7B7"
            d="M194.147 132.147a1.229 1.229 0 01-.304 1.438 1.474 1.474 0 01-1.144.301 1.489 1.489 0 01-1-.63 1.272 1.272 0 01.394-1.604c.164-.116.353-.192.552-.221 0 0 1.094-.22 1.502.716z" />
         <path fill="#FAC7B7"
            d="M194.394 119.144a1.214 1.214 0 01-.303 1.434 1.504 1.504 0 01-1.143.3 1.486 1.486 0 01-1.002-.626c-.424-.712.122-1.796.946-1.824 0 0 1.095-.22 1.502.716z" />
         <path fill="#FAC7B7"
            d="M164.882 106.191a1.218 1.218 0 01-.303 1.434 1.492 1.492 0 01-1.143.303 1.492 1.492 0 01-1.002-.628 1.264 1.264 0 01.002-1.156 1.264 1.264 0 01.944-.669s1.09-.22 1.502.716z" />
         <path fill="#FAC7B7"
            d="M165.129 93.183a1.224 1.224 0 01-.303 1.439 1.486 1.486 0 01-2.144-.33 1.262 1.262 0 01.945-1.824s1.091-.216 1.502.715z" />
         <path fill="#FAC7B7"
            d="M165.377 80.167a1.21 1.21 0 01-.303 1.434 1.487 1.487 0 01-2.144-.325 1.25 1.25 0 01.392-1.605 1.26 1.26 0 01.553-.22s1.091-.207 1.502.716z" />
         <path fill="#FAC7B7"
            d="M165.625 67.172a1.224 1.224 0 01-.304 1.439 1.486 1.486 0 01-2.144-.33 1.275 1.275 0 01-.138-.578 1.272 1.272 0 01.532-1.025c.164-.117.353-.192.552-.221 0 0 1.09-.216 1.502.715z" />
         <path fill="#FAC7B7"
            d="M165.872 54.17a1.216 1.216 0 01-.303 1.433 1.493 1.493 0 01-1.143.303 1.485 1.485 0 01-1.002-.628 1.251 1.251 0 01-.139-.578 1.25 1.25 0 01.532-1.027 1.26 1.26 0 01.553-.22s1.091-.22 1.502.716z" />
         <path fill="#FAC7B7"
            d="M163.656 170.595a1.224 1.224 0 01-.308 1.447 1.486 1.486 0 01-2.144-.33 1.255 1.255 0 01.394-1.6c.164-.116.353-.192.551-.22 0 0 1.095-.228 1.507.703z" />
         <path fill="#FAC7B7"
            d="M163.408 183.602a1.211 1.211 0 01-.303 1.435 1.478 1.478 0 01-2.144-.326 1.264 1.264 0 01.001-1.156 1.262 1.262 0 01.945-.668s1.09-.22 1.501.715z" />
         <path fill="#FAC7B7"
            d="M163.161 196.606a1.22 1.22 0 01-.303 1.438 1.486 1.486 0 01-2.145-.33 1.26 1.26 0 01.005-1.154 1.266 1.266 0 01.941-.67s1.091-.225 1.502.716z" />
         <path fill="#FAC7B7"
            d="M163.903 157.609a1.21 1.21 0 01-.303 1.434 1.484 1.484 0 01-2.145-.325 1.261 1.261 0 01.005-1.155 1.267 1.267 0 01.941-.67s1.091-.237 1.502.716z" />
         <path fill="#FAC7B7"
            d="M164.151 144.588a1.217 1.217 0 01-.303 1.434 1.49 1.49 0 01-2.145-.325 1.25 1.25 0 01-.139-.578 1.25 1.25 0 01.532-1.027c.164-.116.354-.191.553-.219 0 0 1.091-.22 1.502.715z" />
         <path fill="#FAC7B7"
            d="M164.399 131.581a1.22 1.22 0 01-.304 1.438 1.474 1.474 0 01-1.144.301 1.494 1.494 0 01-1-.63 1.272 1.272 0 01.394-1.604c.164-.116.353-.192.552-.221 0 0 1.09-.22 1.502.716z" />
         <path fill="#FAC7B7"
            d="M164.646 118.577a1.217 1.217 0 01-.303 1.434 1.49 1.49 0 01-2.145-.325 1.25 1.25 0 01-.139-.578 1.25 1.25 0 01.532-1.027c.164-.116.354-.191.553-.219 0 0 1.091-.22 1.502.715z" />
      </g>
      <g class="balletgirl-sweeter-curles">
         <path fill="#153A23"
            d="M59.661 177.111c-.473-.897.328-2.297 1.401-2.122 1.073.175 1.433 1.514.876 2.302-.346.508.438 1.111.854.656.732-.809 1.542-1.75 2.65-2.043.483-.141 1-.109 1.463.092.402.201.617.612.99.875.831.547 1.73-.026 2.627 0 .898.026 1.844.521 2.102 1.448a.54.54 0 00.659.355.54.54 0 00.388-.639 3.03 3.03 0 00-2.046-2.048 3.935 3.935 0 00-1.546-.188c-.27.025-.537.07-.8.135a1 1 0 01-1.121-.332 3.039 3.039 0 00-3-.749c-1.315.337-2.265 1.361-3.128 2.324l.85.657c1.003-1.466 0-3.799-1.835-3.939-1.918-.149-3.188 2.14-2.334 3.759.328.617 1.261.07.937-.547l.013.004z" />
         <path fill="#153A23"
            d="M113.746 184.516a5.687 5.687 0 01-2.286-1.589 5.874 5.874 0 01-.819-1.221c-.109-.214-.547-1.028-.372-1.238.083-.101.508-.052.613-.052.276 0 .547 0 .819.035.52.054 1.033.159 1.533.315a7.843 7.843 0 012.807 1.527.544.544 0 00.587.108.548.548 0 00.337-.493l.114-1.597-.543.547 2.426-.022a.547.547 0 00.543-.543.543.543 0 00-.543-.543l-2.426.022a.553.553 0 00-.543.543l-.114 1.597.924-.381a9.187 9.187 0 00-3.644-1.908 8.877 8.877 0 00-2.058-.284c-.609 0-1.401-.035-1.752.556-.35.591-.109 1.247.114 1.807a6.85 6.85 0 004.003 3.864c.652.245.937-.801.289-1.046l-.009-.004z" />
         <path fill="#153A23"
            d="M94.306 165.769l.062 3.82a.55.55 0 00.928.385c.665-.674 1.633-1.601 2.601-.936a8.1 8.1 0 001.047.717c.35.168.715.302 1.09.403 1.213.333 3.066.315 3.675 1.641.284.639 1.221.088.937-.547-.762-1.707-2.886-1.72-4.436-2.188a3.93 3.93 0 01-1.148-.512c-.495-.333-.876-.735-1.502-.836-1.204-.197-2.247.679-3.03 1.475l.924.381-.062-3.821a.54.54 0 00-.543-.542.542.542 0 00-.543.542v.018z" />
         <path fill="#153A23"
            d="M82.241 192.927a3.194 3.194 0 01.048-3.646 3.126 3.126 0 013.56-.949 2.071 2.071 0 011.363 1.343c.135.595-.381.915-.92.805-.666-.135-.933-.875-.946-1.483a2.665 2.665 0 01.683-1.834 1.81 1.81 0 01.833-.581c.327-.111.68-.127 1.015-.044a1.502 1.502 0 011.152 1.466c-.03.7 1.055.695 1.086 0a2.514 2.514 0 00-1.392-2.285 2.77 2.77 0 00-2.781.11c-1.62 1.028-2.435 3.816-.824 5.251a2.054 2.054 0 002.588.118c.85-.674.714-1.873.127-2.674-1.2-1.636-3.744-1.881-5.4-.814a4.212 4.212 0 00-1.13 5.781c.39.573 1.315.031.938-.547v-.017z" />
         <path fill="#153A23"
            d="M158.035 138.812c-.202-.971-.46-2.096-.057-3.063.267-.635.854-1.221 1.594-1.138 1.344.149 1.861 2.14 2.093 3.208.149.687 1.169.389 1.047-.289-.101-.538.7-.81 1.103-.722.71.153 1.187.875 1.538 1.444.35.569 1.313.048.937-.547-.591-.976-1.502-2.052-2.759-2.004a1.871 1.871 0 00-1.866 2.118l1.047-.289c-.359-1.646-1.275-4.044-3.32-4.009a2.734 2.734 0 00-2.351 1.681c-.565 1.243-.316 2.625-.053 3.89.144.683 1.187.394 1.047-.289v.009z" />
         <path fill="#153A23"
            d="M141.919 184.673a.873.873 0 01.797-1.391c.77.122.757.967 1.165 1.466.783.958 1.913.437 2.802-.035.346-.18.876-.552 1.314-.438.307.088.486.486.701.696.228.23.522.383.841.438a9.75 9.75 0 001.134 0c.376.033.74.146 1.069.332a2.76 2.76 0 011.313 1.751.542.542 0 001.047-.289 3.784 3.784 0 00-3.788-2.858c-.491 0-.753 0-1.082-.376a1.776 1.776 0 00-1.406-.783 3.324 3.324 0 00-1.454.472c-.354.184-.95.644-1.383.565-.434-.079-.614-1.05-.929-1.396a2.065 2.065 0 00-1.629-.63c-1.66.105-2.19 2.048-1.274 3.242.438.552 1.191-.223.766-.766h-.004z" />
         <path fill="#153A23"
            d="M157.947 175.93a.982.982 0 01-.932-.86.984.984 0 01.056-.453l-.468.267 1.642-.157a.56.56 0 00.465-.278.546.546 0 00.003-.541c-.547-1.037-1.313-2.38-.915-3.597.232-.735 1.148-1.58 1.958-1.16.617.324 1.165-.608.547-.932-1.314-.678-2.794.145-3.385 1.383-.771 1.624.096 3.409.876 4.853l.464-.814-1.042.101c-.302.031-.749 0-.986.214a1.669 1.669 0 00-.262 1.409 2.068 2.068 0 001.997 1.655c.696-.022.7-1.108 0-1.086l-.018-.004z" />
         <path fill="#153A23"
            d="M142.97 158.347c-.438-.49.245-1.063.692-1.151a2.602 2.602 0 011.918.517 3.394 3.394 0 011.392 3.338l.797-.323c-.954-.543-1.121-1.869-.67-2.801.592-1.234 2.011-1.816 3.272-2.07.683-.14.394-1.181-.289-1.046-1.656.337-3.394 1.221-4.056 2.875-.56 1.396-.166 3.204 1.196 3.978a.554.554 0 00.477.032.555.555 0 00.32-.356 4.5 4.5 0 00-2.431-4.875c-.928-.437-2.132-.59-3.017.035a1.767 1.767 0 00-.774 1.231 1.768 1.768 0 00.406 1.395c.469.521 1.235-.249.767-.766v-.013z" />
         <path fill="#153A23"
            d="M122.251 155.126c-.85 1.046-.333 2.551.81 3.16 1.454.77 3.087-.289 3.99-1.414l-.907-.236c.289 1.002.565 2.013.876 3.015.219.731.578 1.374 1.384 1.545.806.17 1.493-.175 2.19-.407.319-.105 1.414-.315 1.44.232a.552.552 0 00.819.468l.924-.648c.565-.398 0-1.339-.552-.936l-.919.648.814.468c-.083-1.602-1.983-1.576-3.1-1.173a3.59 3.59 0 01-1.196.302c-.438 0-.587-.254-.718-.635-.35-1.037-.609-2.118-.911-3.168a.544.544 0 00-.664-.377.55.55 0 00-.242.136c-.561.696-1.459 1.532-2.444 1.313-.565-.122-1.279-.976-.823-1.536.455-.56-.324-1.313-.767-.766l-.004.009z" />
         <path fill="#153A23"
            d="M140.741 116.092a1.49 1.49 0 01-1.047-1.641 1.513 1.513 0 011.721-1.133.55.55 0 00.496-.336.544.544 0 00-.115-.588l-2.063-1.715v.766a2.965 2.965 0 011.174-.674c.438-.2.79-.551.99-.989.565-1.239.937-2.595 1.397-3.877.232-.657-.815-.941-1.047-.285-.438 1.19-.793 2.429-1.283 3.597-.346.827-1.458.775-1.997 1.462a.553.553 0 000 .766l2.063 1.715.385-.923a2.575 2.575 0 00-2.794 2.105 2.603 2.603 0 00.392 1.755c.336.519.846.902 1.439 1.08.67.206.954-.84.289-1.046v-.039z" />
         <path fill="#153A23"
            d="M145.716 88.825a1.5 1.5 0 01-.031-1.584 1.784 1.784 0 011.546-.959 2.998 2.998 0 012.067.753c.321.235.539.584.609.976 0 .267-.202.586-.491.494l.394.526c-.048-1.663 1.621-3.19 3.293-2.871.679.127.973-.915.285-1.046-2.334-.438-4.734 1.505-4.659 3.916a.554.554 0 00.398.52 1.424 1.424 0 001.607-.638 1.744 1.744 0 00.031-1.75 3.94 3.94 0 00-3.066-1.943 2.961 2.961 0 00-2.903 1.392 2.628 2.628 0 00.153 2.984.544.544 0 00.767 0 .557.557 0 000-.766v-.004z" />
         <path fill="#153A23"
            d="M131.877 40.132a1.668 1.668 0 012.851 1.72c-.219.438.249 1.055.74.74.324-.206.657.118.906.324.391.362.818.683 1.275.958.569.289 1.23.162 1.791.437a1.466 1.466 0 01.801 1.405c-.03.7 1.056.696 1.086 0a2.538 2.538 0 00-.876-2.004 2.461 2.461 0 00-.981-.534 7.501 7.501 0 01-1.313-.236c-1.047-.486-1.958-2.118-3.276-1.278l.744.74a2.746 2.746 0 00.21-2.026 2.756 2.756 0 00-4.935-.788c-.412.56.53 1.102.937.547l.04-.005z" />
         <path fill="#153A23"
            d="M130.112 68.319c-.933.24-2.037-.928-1.507-1.825a1.41 1.41 0 012.19-.18c.363.438 1.038-.035.906-.53a4.96 4.96 0 01-.131-1.995l-.521.399c.649.049 1.261.323 1.73.774a.543.543 0 00.849-.656c-.332-.64.5-1.4 1.117-1.173.618.228.937-.8.289-1.046-1.563-.582-3.087 1.348-2.343 2.766l.854-.661a3.98 3.98 0 00-2.496-1.09.55.55 0 00-.526.399 6.292 6.292 0 00.132 2.573l.906-.53c-1.033-1.208-3.267-.875-3.941.538-.832 1.729.998 3.746 2.803 3.283a.54.54 0 00-.289-1.046h-.022z" />
         <path fill="#153A23"
            d="M112.756 72.72a5.712 5.712 0 00.053 5.252c.394.722 1.038 1.418 1.896 1.514a1.656 1.656 0 001.783-1.068.55.55 0 00-.381-.665 3.908 3.908 0 00-2.081-.1.521.521 0 00-.376.376c-.438 2.38 2.369 4.468 4.515 3.269l-.819-.468c.055.783.4 1.518.968 2.06.508.478 1.279-.288.771-.77a1.969 1.969 0 01-.653-1.29.552.552 0 00-.274-.465.547.547 0 00-.541-.003c-1.265.708-3.188-.583-2.925-2.044l-.377.38a2.803 2.803 0 011.507.101l-.381-.67c-.175.473-.845.268-1.121.044a3.088 3.088 0 01-.876-1.448 4.615 4.615 0 01.245-3.466c.311-.621-.622-1.173-.933-.547v.009z" />
      </g>
      <g class="Group_3">
         <path fill="#FAC7B7"
            d="M177.05 256.974a1.215 1.215 0 01-.276 1.44 1.484 1.484 0 01-2.15-.284c-.438-.705.087-1.799.906-1.843 0 0 1.091-.24 1.52.687z" />
         <path fill="#FAC7B7"
            d="M177.05 243.964a1.224 1.224 0 01-.276 1.444 1.497 1.497 0 01-1.138.323 1.502 1.502 0 01-1.012-.611 1.255 1.255 0 01-.019-1.154 1.258 1.258 0 01.925-.689s1.091-.236 1.52.687z" />
         <path fill="#FAC7B7"
            d="M177.05 230.959a1.213 1.213 0 01-.276 1.44 1.5 1.5 0 01-1.137.324 1.498 1.498 0 01-.57-.199 1.495 1.495 0 01-.443-.41c-.438-.704.087-1.798.906-1.842 0 0 1.091-.241 1.52.687z" />
         <path fill="#FAC7B7"
            d="M177.05 217.949c.116.238.152.507.103.768a1.23 1.23 0 01-.379.676 1.479 1.479 0 01-1.138.322 1.479 1.479 0 01-1.012-.611 1.26 1.26 0 01.906-1.838s1.091-.241 1.52.683z" />
         <path fill="#FAC7B7"
            d="M177.05 204.926a1.213 1.213 0 01-.276 1.439 1.474 1.474 0 01-1.707.125 1.479 1.479 0 01-.443-.409 1.254 1.254 0 01-.019-1.153 1.261 1.261 0 01.925-.689s1.091-.224 1.52.687z" />
         <path fill="#FAC7B7"
            d="M177.05 308.384a1.227 1.227 0 01-.276 1.444 1.479 1.479 0 01-1.138.322 1.483 1.483 0 01-1.012-.611 1.25 1.25 0 01-.019-1.153 1.258 1.258 0 01.925-.689s1.091-.236 1.52.687z" />
         <path fill="#FAC7B7"
            d="M177.05 295.378a1.217 1.217 0 01-.276 1.44 1.49 1.49 0 01-2.15-.284c-.438-.705.087-1.799.906-1.843 0 0 1.091-.24 1.52.687z" />
         <path fill="#FAC7B7"
            d="M177.05 282.382c.116.238.152.507.103.768a1.23 1.23 0 01-.379.676 1.479 1.479 0 01-1.138.322 1.483 1.483 0 01-1.012-.611 1.254 1.254 0 01-.019-1.153 1.26 1.26 0 01.925-.689s1.091-.25 1.52.687z" />
         <path fill="#FAC7B7"
            d="M177.05 269.363a1.213 1.213 0 01-.276 1.44 1.484 1.484 0 01-2.15-.285c-.438-.704.087-1.798.906-1.842 0 0 1.091-.241 1.52.687z" />
         <path fill="#FAC7B7"
            d="M191.927 263.167a1.223 1.223 0 01-.276 1.444 1.493 1.493 0 01-1.708.121 1.495 1.495 0 01-.443-.41 1.266 1.266 0 01.907-1.843s1.09-.227 1.52.688z" />
         <path fill="#FAC7B7"
            d="M191.926 250.161a1.213 1.213 0 01-.275 1.439 1.482 1.482 0 01-2.142-.288c-.438-.705.088-1.799.907-1.843-.009.005 1.081-.236 1.51.692z" />
         <path fill="#FAC7B7"
            d="M191.927 237.151a1.226 1.226 0 01-.276 1.444 1.479 1.479 0 01-1.138.322 1.483 1.483 0 01-1.013-.611 1.265 1.265 0 01.907-1.842s1.09-.236 1.52.687z" />
         <path fill="#FAC7B7"
            d="M191.927 224.145a1.22 1.22 0 01-.276 1.44 1.5 1.5 0 01-1.137.324 1.498 1.498 0 01-1.014-.609c-.438-.704.088-1.798.907-1.842 0 0 1.09-.241 1.52.687z" />
         <path fill="#FAC7B7"
            d="M191.927 211.135a1.226 1.226 0 01-.276 1.444 1.479 1.479 0 01-1.138.322 1.483 1.483 0 01-1.013-.61 1.28 1.28 0 01-.149-.574 1.26 1.26 0 011.056-1.264s1.09-.241 1.52.682z" />
         <path fill="#FAC7B7"
            d="M191.927 314.581a1.22 1.22 0 01-.276 1.439 1.498 1.498 0 01-1.137.322 1.492 1.492 0 01-1.014-.606c-.438-.705.088-1.799.907-1.842 0-.005 1.09-.241 1.52.687z" />
         <path fill="#FAC7B7"
            d="M191.927 301.571a1.225 1.225 0 01-.276 1.444 1.493 1.493 0 01-1.708.121 1.482 1.482 0 01-.443-.41 1.265 1.265 0 01.907-1.842s1.09-.241 1.52.687z" />
         <path fill="#FAC7B7"
            d="M191.927 288.565a1.22 1.22 0 01-.276 1.44 1.496 1.496 0 01-1.707.123 1.491 1.491 0 01-.444-.408c-.438-.704.088-1.798.907-1.842 0 0 1.09-.245 1.52.687z" />
         <path fill="#FAC7B7"
            d="M191.927 275.555a1.226 1.226 0 01-.276 1.444 1.482 1.482 0 01-2.142-.306 1.262 1.262 0 01.361-1.61c.161-.119.348-.199.546-.233 0 0 1.081-.218 1.511.705z" />
         <path fill="#FAC7B7"
            d="M204.942 256.974a1.215 1.215 0 01-.276 1.44 1.48 1.48 0 01-2.146-.284c-.438-.705.083-1.799.907-1.843 0 0 1.09-.24 1.515.687z" />
         <path fill="#FAC7B7"
            d="M204.942 243.964a1.227 1.227 0 01-.276 1.444 1.47 1.47 0 01-1.136.322 1.474 1.474 0 01-1.01-.61 1.27 1.27 0 01-.022-1.155 1.255 1.255 0 01.929-.688s1.09-.236 1.515.687z" />
         <path fill="#FAC7B7"
            d="M204.942 230.959a1.213 1.213 0 01-.276 1.439 1.469 1.469 0 01-1.704.125 1.475 1.475 0 01-.442-.409c-.438-.704.083-1.799.907-1.842 0 0 1.09-.241 1.515.687z" />
         <path fill="#FAC7B7"
            d="M204.942 217.949a1.226 1.226 0 01-.276 1.444 1.492 1.492 0 01-1.136.322 1.476 1.476 0 01-1.01-.611 1.262 1.262 0 01-.022-1.153 1.262 1.262 0 01.929-.685s1.09-.241 1.515.683z" />
         <path fill="#FAC7B7"
            d="M204.942 204.926a1.213 1.213 0 01-.276 1.439 1.48 1.48 0 01-2.146-.284 1.27 1.27 0 01-.022-1.155 1.255 1.255 0 01.929-.687s1.09-.224 1.515.687z" />
         <path fill="#FAC7B7"
            d="M204.942 308.384a1.227 1.227 0 01-.276 1.444 1.47 1.47 0 01-1.136.322 1.474 1.474 0 01-1.01-.611 1.262 1.262 0 01.359-1.611 1.26 1.26 0 01.548-.231s1.09-.236 1.515.687z" />
         <path fill="#FAC7B7"
            d="M204.942 295.378a1.217 1.217 0 01-.276 1.44 1.483 1.483 0 01-1.703.124 1.502 1.502 0 01-.443-.408c-.438-.705.083-1.799.907-1.843 0 0 1.09-.24 1.515.687z" />
         <path fill="#FAC7B7"
            d="M204.942 282.382a1.226 1.226 0 01-.276 1.444 1.492 1.492 0 01-1.136.322 1.476 1.476 0 01-1.01-.611 1.27 1.27 0 01-.022-1.155 1.263 1.263 0 01.929-.687s1.09-.25 1.515.687z" />
         <path fill="#FAC7B7"
            d="M204.942 269.363a1.213 1.213 0 01-.276 1.44 1.478 1.478 0 01-1.135.323 1.466 1.466 0 01-1.011-.608c-.438-.704.083-1.798.907-1.842 0 0 1.09-.241 1.515.687z" />
      </g>
      <g class="balletgirl-hand-up">
         <path fill="#B26D55"
            d="M125.768 31.483c-.468-4.717-2.208-10.497-3.21-15.164-.905-4.213-2.413-8.777-.731-12.678a1.253 1.253 0 01.992-.727 1.26 1.26 0 011.14.463 7.577 7.577 0 011.241 2.735l2.774 10.13a49.285 49.285 0 01.737-12.892 5.92 5.92 0 01.802-2.04 1.269 1.269 0 011.318-.525 1.277 1.277 0 01.987 1.019c1.05 5.668 1.589 8.344 1.752 14.114-.009-.403 3.418-.126 3.687-.08 2.313.446 2.537 1.92 2.619 4.081.164 4.22-3.149 5.364-4.826 8.67a8.957 8.957 0 00-.875 3.318" />
         <path fill="#7F4341"
            d="M135.782 15.914c.017.792.034 1.584-.024 2.373a8.807 8.807 0 01-.478 2.199.534.534 0 00.2.566.547.547 0 00.401.102.541.541 0 00.447-.401c.553-1.58.571-3.208.535-4.866a.542.542 0 00-1.081.023v.004z" />
      </g>
      <path fill="#FAC7B7"
         d="M177.221 309.557c.022 2.411-3.013 3.435-5.4 3.829a127.88 127.88 0 00-22.707 5.934c-.508.136-.97.405-1.34.779-1.042 1.26-1.353 4.638-1.244 6.612a189.082 189.082 0 0044.293-1.974c1.524-.258 3.179-.612 4.147-1.82-.876-2.726-1.988-7.234-3.319-9.767a4.626 4.626 0 00-1.314-1.729l-13.116-1.864z" />
      <path fill="#fff"
         d="M146.351 326.418l19.457-1.129c6.363-.368 12.7-.661 18.923-2.219 3.416-.875 6.758-1.969 10.073-3.142.933-.328.53-1.825-.416-1.492-5.882 2.074-11.846 3.908-18.074 4.573-6.332.683-12.739.875-19.098 1.23l-10.874.63c-.994.057-.999 1.606 0 1.549h.009z" />
      <path fill="#FAC8B8"
         d="M191.545 41.146c.148-9.52.06-18.99 2.198-28.27 1.524-6.633 7.623-4.852 9.374.4a107.24 107.24 0 013.113 10.534c1.041 4.66 1.525 12.527 1.938 17.284a4.733 4.733 0 01-.101 1.907 4.633 4.633 0 01-1.167 1.624c-2.04 2.118-4.038 1.91-6.198 3.256l-9.157-6.735z" />
      <path fill="#fff"
         d="M206.849 47.917c-.243-6.325-.635-12.661-1.466-18.94-.649-4.788-1.569-9.62-3.402-14.11a20.7 20.7 0 00-3.105-5.338c-.637-.774-1.757.308-1.119 1.073 2.453 2.97 3.698 6.837 4.618 10.518 1.276 5.176 1.889 10.51 2.327 15.801.294 3.647.483 7.301.624 10.954.042.99 1.588 1.028 1.55.03l-.027.012z" />
   </g>
</svg>