<svg xmlns="http://www.w3.org/2000/svg" width="73" height="74" fill="none"><path fill="#F7BC28" d="M20.24 3.046C14.418 5.598 9.252 9.715 6.136 14.736c-7.79 12.597-7.708 31.697 5.494 40.67 15.99 10.867 44.28 5.352 46.166-16.877C59.682 16.136 44.266-7.327 20.24 3.046z"/><path fill="#FBFAF7" d="M22.946 9.55c-4.346 1.893-8.118 4.94-10.414 8.644-5.822 9.386-5.74 23.546 4.1 30.214 11.89 8.069 32.882 3.952 34.276-12.513C52.22 19.347 40.822 1.894 22.946 9.55z"/><path fill="#F7BC28" d="M42.708 52.69c4.018 5.104 6.478 7.573 10.25 10.702a704.486 704.486 0 018.036 6.668c2.214 1.811 4.838 3.787 7.626 3.293 2.952-.494 5.002-3.951 4.018-6.833-.328-.988-.984-1.893-1.722-2.717C65.832 57.3 59.928 51.454 53.368 46.35l-10.66 6.34z"/><path fill="#E48929" d="M57.14 66.767l9.43-8.315 1.804 2.058-9.184 7.904-2.05-1.647zm3.28 2.799l8.938-7.738 1.558 1.975-8.61 7.328-1.886-1.565z"/></svg>